<mxfile host="app.diagrams.net" modified="2023-10-02T16:15:56.382Z" agent="Mozilla/5.0 (X11; Linux x86_64; rv:109.0) Gecko/20100101 Firefox/114.0" etag="T2uQrgWtaLEsgAu46NBm" version="22.0.0" type="github">
  <diagram name="Página-1" id="ZmS92akMaIv9AW3tyPIW">
    <mxGraphModel dx="1624" dy="442" grid="1" gridSize="10" guides="1" tooltips="1" connect="1" arrows="1" fold="1" page="1" pageScale="1" pageWidth="827" pageHeight="1169" math="0" shadow="0">
      <root>
        <mxCell id="0" />
        <mxCell id="1" parent="0" />
        <mxCell id="V6SM_agtkeBinHtXME4U-1" value="&lt;font style=&quot;font-size: 12px;&quot;&gt;Coche&lt;/font&gt;" style="rounded=1;whiteSpace=wrap;html=1;fillColor=#f8cecc;strokeColor=#b85450;" vertex="1" parent="1">
          <mxGeometry x="-800" y="40" width="80" height="40" as="geometry" />
        </mxCell>
        <mxCell id="V6SM_agtkeBinHtXME4U-2" value="Cliente" style="rounded=1;whiteSpace=wrap;html=1;fillColor=#dae8fc;strokeColor=#6c8ebf;" vertex="1" parent="1">
          <mxGeometry x="-800" y="120" width="80" height="40" as="geometry" />
        </mxCell>
        <mxCell id="V6SM_agtkeBinHtXME4U-3" value="&lt;font style=&quot;font-size: 8px;&quot;&gt;Marca&lt;/font&gt;" style="ellipse;whiteSpace=wrap;html=1;" vertex="1" parent="1">
          <mxGeometry x="-520" y="80" width="40" height="40" as="geometry" />
        </mxCell>
        <mxCell id="V6SM_agtkeBinHtXME4U-4" value="&lt;font style=&quot;font-size: 8px;&quot;&gt;Modelo&lt;/font&gt;" style="ellipse;whiteSpace=wrap;html=1;" vertex="1" parent="1">
          <mxGeometry x="-440" y="80" width="40" height="40" as="geometry" />
        </mxCell>
        <mxCell id="V6SM_agtkeBinHtXME4U-5" value="&lt;font style=&quot;font-size: 8px;&quot;&gt;Color&lt;/font&gt;" style="ellipse;whiteSpace=wrap;html=1;" vertex="1" parent="1">
          <mxGeometry x="-360" y="80" width="40" height="40" as="geometry" />
        </mxCell>
        <mxCell id="V6SM_agtkeBinHtXME4U-6" value="&lt;font style=&quot;font-size: 8px;&quot;&gt;Matrícula&lt;/font&gt;" style="ellipse;whiteSpace=wrap;html=1;" vertex="1" parent="1">
          <mxGeometry x="-600" y="80" width="40" height="40" as="geometry" />
        </mxCell>
        <mxCell id="V6SM_agtkeBinHtXME4U-7" value="&lt;font style=&quot;font-size: 8px;&quot;&gt;Precio&lt;/font&gt;" style="ellipse;whiteSpace=wrap;html=1;" vertex="1" parent="1">
          <mxGeometry x="-280" y="80" width="40" height="40" as="geometry" />
        </mxCell>
        <mxCell id="V6SM_agtkeBinHtXME4U-8" value="&lt;font style=&quot;font-size: 8px;&quot;&gt;Nombre&lt;/font&gt;" style="ellipse;whiteSpace=wrap;html=1;" vertex="1" parent="1">
          <mxGeometry x="-520" y="160" width="40" height="40" as="geometry" />
        </mxCell>
        <mxCell id="V6SM_agtkeBinHtXME4U-9" value="&lt;font style=&quot;font-size: 8px;&quot;&gt;Nº Teléfono&lt;br&gt;&lt;/font&gt;" style="ellipse;whiteSpace=wrap;html=1;" vertex="1" parent="1">
          <mxGeometry x="-440" y="160" width="40" height="40" as="geometry" />
        </mxCell>
        <mxCell id="V6SM_agtkeBinHtXME4U-10" value="&lt;font style=&quot;font-size: 8px;&quot;&gt;Dirección&lt;/font&gt;" style="ellipse;whiteSpace=wrap;html=1;" vertex="1" parent="1">
          <mxGeometry x="-360" y="160" width="40" height="40" as="geometry" />
        </mxCell>
        <mxCell id="V6SM_agtkeBinHtXME4U-11" value="&lt;font style=&quot;font-size: 8px;&quot;&gt;DNI&lt;/font&gt;" style="ellipse;whiteSpace=wrap;html=1;" vertex="1" parent="1">
          <mxGeometry x="-600" y="160" width="40" height="40" as="geometry" />
        </mxCell>
        <mxCell id="V6SM_agtkeBinHtXME4U-12" value="&lt;font style=&quot;font-size: 8px;&quot;&gt;Ciudad&lt;/font&gt;" style="ellipse;whiteSpace=wrap;html=1;" vertex="1" parent="1">
          <mxGeometry x="-280" y="160" width="40" height="40" as="geometry" />
        </mxCell>
        <mxCell id="V6SM_agtkeBinHtXME4U-13" value="&lt;font style=&quot;font-size: 10px;&quot;&gt;Consencionario&lt;/font&gt;" style="rounded=1;whiteSpace=wrap;html=1;fillColor=#fff2cc;strokeColor=#d6b656;" vertex="1" parent="1">
          <mxGeometry x="-800" y="200" width="80" height="40" as="geometry" />
        </mxCell>
        <mxCell id="V6SM_agtkeBinHtXME4U-19" value="&lt;font style=&quot;font-size: 8px;&quot;&gt;Compra&lt;/font&gt;" style="rhombus;whiteSpace=wrap;html=1;" vertex="1" parent="1">
          <mxGeometry x="-680" y="80" width="40" height="40" as="geometry" />
        </mxCell>
        <mxCell id="V6SM_agtkeBinHtXME4U-20" value="&lt;font style=&quot;font-size: 8px;&quot;&gt;Revisa&lt;/font&gt;" style="rhombus;whiteSpace=wrap;html=1;" vertex="1" parent="1">
          <mxGeometry x="-680" y="160" width="40" height="40" as="geometry" />
        </mxCell>
        <mxCell id="V6SM_agtkeBinHtXME4U-21" value="&lt;font style=&quot;font-size: 10px;&quot;&gt;Consencionario&lt;/font&gt;" style="rounded=1;whiteSpace=wrap;html=1;fillColor=#fff2cc;strokeColor=#d6b656;" vertex="1" parent="1">
          <mxGeometry x="-700" y="400" width="80" height="40" as="geometry" />
        </mxCell>
        <mxCell id="V6SM_agtkeBinHtXME4U-22" value="&lt;font style=&quot;font-size: 8px;&quot;&gt;Revisa&lt;/font&gt;" style="rhombus;whiteSpace=wrap;html=1;" vertex="1" parent="1">
          <mxGeometry x="-580" y="400" width="40" height="40" as="geometry" />
        </mxCell>
        <mxCell id="V6SM_agtkeBinHtXME4U-23" value="&lt;font style=&quot;font-size: 12px;&quot;&gt;Coche&lt;/font&gt;" style="rounded=1;whiteSpace=wrap;html=1;fillColor=#f8cecc;strokeColor=#b85450;" vertex="1" parent="1">
          <mxGeometry x="-500" y="400" width="120" height="40" as="geometry" />
        </mxCell>
        <mxCell id="V6SM_agtkeBinHtXME4U-24" value="&lt;font style=&quot;font-size: 8px;&quot;&gt;Compra&lt;/font&gt;" style="rhombus;whiteSpace=wrap;html=1;" vertex="1" parent="1">
          <mxGeometry x="-340" y="400" width="40" height="40" as="geometry" />
        </mxCell>
        <mxCell id="V6SM_agtkeBinHtXME4U-25" value="Cliente" style="rounded=1;whiteSpace=wrap;html=1;fillColor=#dae8fc;strokeColor=#6c8ebf;" vertex="1" parent="1">
          <mxGeometry x="-260" y="400" width="80" height="40" as="geometry" />
        </mxCell>
        <mxCell id="V6SM_agtkeBinHtXME4U-26" value="&lt;font style=&quot;font-size: 8px;&quot;&gt;Nombre&lt;/font&gt;" style="ellipse;whiteSpace=wrap;html=1;fillColor=#dae8fc;strokeColor=#6c8ebf;" vertex="1" parent="1">
          <mxGeometry x="-270" y="480" width="40" height="40" as="geometry" />
        </mxCell>
        <mxCell id="V6SM_agtkeBinHtXME4U-27" value="&lt;font style=&quot;font-size: 8px;&quot;&gt;Nº Teléfono&lt;br&gt;&lt;/font&gt;" style="ellipse;whiteSpace=wrap;html=1;fillColor=#f8cecc;strokeColor=#b85450;" vertex="1" parent="1">
          <mxGeometry x="-270" y="320" width="40" height="40" as="geometry" />
        </mxCell>
        <mxCell id="V6SM_agtkeBinHtXME4U-30" value="&lt;font style=&quot;font-size: 8px;&quot;&gt;Ciudad&lt;/font&gt;" style="ellipse;whiteSpace=wrap;html=1;fillColor=#dae8fc;strokeColor=#6c8ebf;" vertex="1" parent="1">
          <mxGeometry x="-150" y="380" width="40" height="40" as="geometry" />
        </mxCell>
        <mxCell id="V6SM_agtkeBinHtXME4U-32" value="&lt;font style=&quot;font-size: 8px;&quot;&gt;Modelo&lt;/font&gt;" style="ellipse;whiteSpace=wrap;html=1;fillColor=#f8cecc;strokeColor=#b85450;" vertex="1" parent="1">
          <mxGeometry x="-420" y="320" width="40" height="40" as="geometry" />
        </mxCell>
        <mxCell id="V6SM_agtkeBinHtXME4U-35" value="&lt;font style=&quot;font-size: 8px;&quot;&gt;Precio&lt;/font&gt;" style="ellipse;whiteSpace=wrap;html=1;fillColor=#dae8fc;strokeColor=#6c8ebf;" vertex="1" parent="1">
          <mxGeometry x="-420" y="480" width="40" height="40" as="geometry" />
        </mxCell>
        <mxCell id="V6SM_agtkeBinHtXME4U-36" value="" style="endArrow=none;html=1;rounded=0;exitX=0.25;exitY=0;exitDx=0;exitDy=0;" edge="1" parent="1">
          <mxGeometry width="50" height="50" relative="1" as="geometry">
            <mxPoint x="-249.99999999999977" y="400" as="sourcePoint" />
            <mxPoint x="-250" y="360" as="targetPoint" />
          </mxGeometry>
        </mxCell>
        <mxCell id="V6SM_agtkeBinHtXME4U-37" value="" style="endArrow=none;html=1;rounded=0;exitX=0.25;exitY=0;exitDx=0;exitDy=0;" edge="1" parent="1">
          <mxGeometry width="50" height="50" relative="1" as="geometry">
            <mxPoint x="-250" y="480" as="sourcePoint" />
            <mxPoint x="-250" y="440" as="targetPoint" />
          </mxGeometry>
        </mxCell>
        <mxCell id="V6SM_agtkeBinHtXME4U-40" value="" style="endArrow=none;html=1;rounded=0;exitX=0.25;exitY=0;exitDx=0;exitDy=0;" edge="1" parent="1">
          <mxGeometry width="50" height="50" relative="1" as="geometry">
            <mxPoint x="-400" y="480" as="sourcePoint" />
            <mxPoint x="-400" y="440" as="targetPoint" />
          </mxGeometry>
        </mxCell>
        <mxCell id="V6SM_agtkeBinHtXME4U-41" value="" style="endArrow=none;html=1;rounded=0;exitX=0.25;exitY=0;exitDx=0;exitDy=0;" edge="1" parent="1">
          <mxGeometry width="50" height="50" relative="1" as="geometry">
            <mxPoint x="-400" y="400" as="sourcePoint" />
            <mxPoint x="-400" y="360" as="targetPoint" />
          </mxGeometry>
        </mxCell>
        <mxCell id="V6SM_agtkeBinHtXME4U-47" value="&lt;font style=&quot;font-size: 8px;&quot;&gt;Matrícula&lt;/font&gt;" style="ellipse;whiteSpace=wrap;html=1;fillColor=#dae8fc;strokeColor=#6c8ebf;" vertex="1" parent="1">
          <mxGeometry x="-500" y="320" width="40" height="40" as="geometry" />
        </mxCell>
        <mxCell id="V6SM_agtkeBinHtXME4U-48" value="&lt;font style=&quot;font-size: 8px;&quot;&gt;Color&lt;/font&gt;" style="ellipse;whiteSpace=wrap;html=1;fillColor=#f8cecc;strokeColor=#b85450;" vertex="1" parent="1">
          <mxGeometry x="-500" y="480" width="40" height="40" as="geometry" />
        </mxCell>
        <mxCell id="V6SM_agtkeBinHtXME4U-49" value="" style="endArrow=none;html=1;rounded=0;exitX=0.25;exitY=0;exitDx=0;exitDy=0;" edge="1" parent="1">
          <mxGeometry width="50" height="50" relative="1" as="geometry">
            <mxPoint x="-480" y="480" as="sourcePoint" />
            <mxPoint x="-480" y="440" as="targetPoint" />
          </mxGeometry>
        </mxCell>
        <mxCell id="V6SM_agtkeBinHtXME4U-50" value="" style="endArrow=none;html=1;rounded=0;exitX=0.25;exitY=0;exitDx=0;exitDy=0;" edge="1" parent="1">
          <mxGeometry width="50" height="50" relative="1" as="geometry">
            <mxPoint x="-480" y="400" as="sourcePoint" />
            <mxPoint x="-480" y="360" as="targetPoint" />
          </mxGeometry>
        </mxCell>
        <mxCell id="V6SM_agtkeBinHtXME4U-51" value="&lt;font style=&quot;font-size: 8px;&quot;&gt;Marca&lt;/font&gt;" style="ellipse;whiteSpace=wrap;html=1;fillColor=#fff2cc;strokeColor=#d6b656;" vertex="1" parent="1">
          <mxGeometry x="-460" y="340" width="40" height="40" as="geometry" />
        </mxCell>
        <mxCell id="V6SM_agtkeBinHtXME4U-52" value="" style="endArrow=none;html=1;rounded=0;" edge="1" parent="1">
          <mxGeometry width="50" height="50" relative="1" as="geometry">
            <mxPoint x="-440" y="400" as="sourcePoint" />
            <mxPoint x="-440" y="380" as="targetPoint" />
          </mxGeometry>
        </mxCell>
        <mxCell id="V6SM_agtkeBinHtXME4U-53" value="" style="endArrow=none;html=1;rounded=0;exitX=1;exitY=0.5;exitDx=0;exitDy=0;" edge="1" parent="1" source="V6SM_agtkeBinHtXME4U-24">
          <mxGeometry width="50" height="50" relative="1" as="geometry">
            <mxPoint x="-310" y="470" as="sourcePoint" />
            <mxPoint x="-260" y="420" as="targetPoint" />
          </mxGeometry>
        </mxCell>
        <mxCell id="V6SM_agtkeBinHtXME4U-54" value="" style="endArrow=none;html=1;rounded=0;exitX=1;exitY=0.5;exitDx=0;exitDy=0;" edge="1" parent="1">
          <mxGeometry width="50" height="50" relative="1" as="geometry">
            <mxPoint x="-380" y="419.66" as="sourcePoint" />
            <mxPoint x="-340" y="419.66" as="targetPoint" />
          </mxGeometry>
        </mxCell>
        <mxCell id="V6SM_agtkeBinHtXME4U-55" value="" style="endArrow=none;html=1;rounded=0;exitX=1;exitY=0.5;exitDx=0;exitDy=0;" edge="1" parent="1">
          <mxGeometry width="50" height="50" relative="1" as="geometry">
            <mxPoint x="-540" y="419.66" as="sourcePoint" />
            <mxPoint x="-500" y="419.66" as="targetPoint" />
          </mxGeometry>
        </mxCell>
        <mxCell id="V6SM_agtkeBinHtXME4U-56" value="" style="endArrow=none;html=1;rounded=0;exitX=1;exitY=0.5;exitDx=0;exitDy=0;" edge="1" parent="1">
          <mxGeometry width="50" height="50" relative="1" as="geometry">
            <mxPoint x="-620" y="419.66" as="sourcePoint" />
            <mxPoint x="-580" y="419.66" as="targetPoint" />
          </mxGeometry>
        </mxCell>
        <mxCell id="V6SM_agtkeBinHtXME4U-64" value="&lt;font style=&quot;font-size: 8px;&quot;&gt;Dirección&lt;/font&gt;" style="ellipse;whiteSpace=wrap;html=1;fillColor=#fff2cc;strokeColor=#d6b656;" vertex="1" parent="1">
          <mxGeometry x="-220" y="320" width="40" height="40" as="geometry" />
        </mxCell>
        <mxCell id="V6SM_agtkeBinHtXME4U-65" value="" style="endArrow=none;html=1;rounded=0;exitX=0.25;exitY=0;exitDx=0;exitDy=0;" edge="1" parent="1">
          <mxGeometry width="50" height="50" relative="1" as="geometry">
            <mxPoint x="-199.99999999999977" y="400" as="sourcePoint" />
            <mxPoint x="-200" y="360" as="targetPoint" />
          </mxGeometry>
        </mxCell>
        <mxCell id="V6SM_agtkeBinHtXME4U-66" value="" style="endArrow=none;html=1;rounded=0;exitX=0.25;exitY=0;exitDx=0;exitDy=0;" edge="1" parent="1">
          <mxGeometry width="50" height="50" relative="1" as="geometry">
            <mxPoint x="-200" y="480" as="sourcePoint" />
            <mxPoint x="-200" y="440" as="targetPoint" />
          </mxGeometry>
        </mxCell>
        <mxCell id="V6SM_agtkeBinHtXME4U-67" value="&lt;font style=&quot;font-size: 8px;&quot;&gt;Nº Teléfono&lt;br&gt;&lt;/font&gt;" style="ellipse;whiteSpace=wrap;html=1;fillColor=#fff2cc;strokeColor=#d6b656;" vertex="1" parent="1">
          <mxGeometry x="-220" y="480" width="40" height="40" as="geometry" />
        </mxCell>
        <mxCell id="V6SM_agtkeBinHtXME4U-68" value="" style="endArrow=none;html=1;rounded=0;entryX=0;entryY=0.5;entryDx=0;entryDy=0;" edge="1" parent="1" target="V6SM_agtkeBinHtXME4U-30">
          <mxGeometry width="50" height="50" relative="1" as="geometry">
            <mxPoint x="-190" y="400" as="sourcePoint" />
            <mxPoint x="-140" y="350" as="targetPoint" />
          </mxGeometry>
        </mxCell>
        <mxCell id="V6SM_agtkeBinHtXME4U-69" value="" style="endArrow=none;html=1;rounded=0;entryX=0;entryY=0.5;entryDx=0;entryDy=0;exitX=0.915;exitY=0.978;exitDx=0;exitDy=0;exitPerimeter=0;" edge="1" parent="1" source="V6SM_agtkeBinHtXME4U-25">
          <mxGeometry width="50" height="50" relative="1" as="geometry">
            <mxPoint x="-180" y="439.44" as="sourcePoint" />
            <mxPoint x="-140" y="439.44" as="targetPoint" />
          </mxGeometry>
        </mxCell>
        <mxCell id="V6SM_agtkeBinHtXME4U-70" value="&lt;font style=&quot;font-size: 8px;&quot;&gt;Nº Empresa&lt;br&gt;&lt;/font&gt;" style="ellipse;whiteSpace=wrap;html=1;fillColor=#f8cecc;strokeColor=#b85450;" vertex="1" parent="1">
          <mxGeometry x="-140" y="420" width="40" height="40" as="geometry" />
        </mxCell>
        <mxCell id="V6SM_agtkeBinHtXME4U-71" value="&lt;font style=&quot;font-size: 8px;&quot;&gt;Nº Empresa&lt;br&gt;&lt;/font&gt;" style="ellipse;whiteSpace=wrap;html=1;fillColor=#fff2cc;strokeColor=#d6b656;" vertex="1" parent="1">
          <mxGeometry x="-580" y="340" width="40" height="40" as="geometry" />
        </mxCell>
        <mxCell id="V6SM_agtkeBinHtXME4U-72" value="" style="endArrow=none;html=1;rounded=0;exitX=0.5;exitY=0;exitDx=0;exitDy=0;" edge="1" parent="1" source="V6SM_agtkeBinHtXME4U-22">
          <mxGeometry width="50" height="50" relative="1" as="geometry">
            <mxPoint x="-610" y="430" as="sourcePoint" />
            <mxPoint x="-560" y="380" as="targetPoint" />
          </mxGeometry>
        </mxCell>
        <mxCell id="V6SM_agtkeBinHtXME4U-73" value="&lt;font style=&quot;font-size: 10px;&quot;&gt;1:n&lt;/font&gt;" style="text;html=1;strokeColor=none;fillColor=none;align=center;verticalAlign=middle;whiteSpace=wrap;rounded=0;" vertex="1" parent="1">
          <mxGeometry x="-550" y="400" width="60" height="30" as="geometry" />
        </mxCell>
        <mxCell id="V6SM_agtkeBinHtXME4U-74" value="&lt;font style=&quot;font-size: 10px;&quot;&gt;n:1&lt;/font&gt;" style="text;html=1;strokeColor=none;fillColor=none;align=center;verticalAlign=middle;whiteSpace=wrap;rounded=0;" vertex="1" parent="1">
          <mxGeometry x="-390" y="400" width="60" height="30" as="geometry" />
        </mxCell>
        <mxCell id="V6SM_agtkeBinHtXME4U-75" value="&lt;font style=&quot;font-size: 8px;&quot;&gt;n:0&lt;/font&gt;" style="text;html=1;strokeColor=none;fillColor=none;align=center;verticalAlign=middle;whiteSpace=wrap;rounded=0;" vertex="1" parent="1">
          <mxGeometry x="-630" y="400" width="60" height="30" as="geometry" />
        </mxCell>
        <mxCell id="V6SM_agtkeBinHtXME4U-76" value="&lt;font style=&quot;font-size: 10px;&quot;&gt;1:1&lt;/font&gt;" style="text;html=1;strokeColor=none;fillColor=none;align=center;verticalAlign=middle;whiteSpace=wrap;rounded=0;" vertex="1" parent="1">
          <mxGeometry x="-310" y="400" width="60" height="30" as="geometry" />
        </mxCell>
        <mxCell id="V6SM_agtkeBinHtXME4U-78" value="&lt;font style=&quot;font-size: 10px;&quot;&gt;n:1&lt;/font&gt;" style="text;html=1;strokeColor=none;fillColor=none;align=center;verticalAlign=middle;whiteSpace=wrap;rounded=0;" vertex="1" parent="1">
          <mxGeometry x="-350" y="440" width="60" height="30" as="geometry" />
        </mxCell>
        <mxCell id="V6SM_agtkeBinHtXME4U-79" value="&lt;font style=&quot;font-size: 8px;&quot;&gt;n:n&lt;/font&gt;" style="text;html=1;strokeColor=none;fillColor=none;align=center;verticalAlign=middle;whiteSpace=wrap;rounded=0;" vertex="1" parent="1">
          <mxGeometry x="-590" y="440" width="60" height="30" as="geometry" />
        </mxCell>
      </root>
    </mxGraphModel>
  </diagram>
</mxfile>
